<?xml version="1.0" encoding="UTF-8"?>
<svg width="440px" height="444px" viewBox="0 0 440 444" version="1.1" xmlns="http://www.w3.org/2000/svg" xmlns:xlink="http://www.w3.org/1999/xlink">
    <!-- Generator: Sketch 56 (81588) - https://sketch.com -->
    <title>logomark_white</title>
    <desc>Created with Sketch.</desc>
    <g id="logomark_white" stroke="none" stroke-width="1" fill="none" fill-rule="evenodd">
        <g fill="#FFFFFF" id="logomark">
            <g>
                <path d="M220,289.610492 L412.102863,204.231442 C421.916167,199.869974 433.40709,204.28956 437.768558,214.102863 C442.130026,223.916167 437.71044,235.40709 427.897137,239.768558 L220,332.167285 L12.652735,240.012945 C5.29642357,236.743474 0.555555556,229.448406 0.555555556,221.398266 L0.555555556,112.092358 C0.555555556,103.676302 5.51191758,96.0496401 13.2026067,92.6315561 L220,0.721603515 L425.993363,92.2742092 C436.273966,96.8433664 440.904009,108.881476 436.334851,119.16208 C434.286656,123.77052 430.601803,127.455373 425.993363,129.503569 L220,221.056174 L112.102863,173.101891 C102.28956,168.740423 97.8699739,157.2495 102.231442,147.436196 C106.59291,137.622893 118.083833,133.203307 127.897137,137.564775 L220,178.499381 L372.123608,110.888889 L220,43.2783965 L39.4444444,123.52531 L39.4444444,209.363579 L220,289.610492 Z M27.8971368,315.342553 L220,400.721604 L412.102863,315.342553 C421.916167,310.981085 433.40709,315.400671 437.768558,325.213974 C442.130026,335.027278 437.71044,346.518201 427.897137,350.879669 L220,443.278396 L12.1028632,350.879669 C2.28955961,346.518201 -2.13002613,335.027278 2.23144211,325.213974 C6.59291035,315.400671 18.0838333,310.981085 27.8971368,315.342553 Z" id="Combined-Shape" fill-rule="nonzero"></path>
            </g>
        </g>
    </g>
</svg>